# xmcd
#
# Track frame offsets:
#	150
#	22056
#	37011
#	50490
#	71205
#	96766
#	116587
#	131738
#	146954
#	157162
#	177133
#	193536
#
# Disc length: 2889 seconds
#
# Revision: 0
# Processed by: cddbd v1.5.2PL0 Copyright (c) Steve Scherf et al.
# Submitted via: EZCDAudioConverter 4.0.5.1
#
DISCID=b80b470c
DTITLE=Fred Chapellier - It Never Comes Easy 
DYEAR=2016
DGENRE=Blues Rock
TTITLE0=It Never Comes Easy
TTITLE1=You Only Know My Name
TTITLE2=Let Me Be Your Loving Man
TTITLE3=Changed Minds
TTITLE4=A Silent Room
TTITLE5=Never Be Fooled Again
TTITLE6=Funk It
TTITLE7=Made In Memphis
TTITLE8=I Thank You
TTITLE9=I Have To Go
TTITLE10=Something Strange
TTITLE11=In The Lap Of The Gods
EXTD=
EXTT0=
EXTT1=
EXTT2=
EXTT3=
EXTT4=
EXTT5=
EXTT6=
EXTT7=
EXTT8=
EXTT9=
EXTT10=
EXTT11=
PLAYORDER=
